<svg xmlns="http://www.w3.org/2000/svg" version="1.1" xmlns:xlink="http://www.w3.org/1999/xlink" xmlns:svgjs="http://svgjs.dev/svgjs" width="2000" height="511" viewBox="0 0 2000 511"><g transform="matrix(1,0,0,1,0.3398876404492057,-1.1371153846152993)"><svg viewBox="0 0 356 91" data-background-color="#dedede" preserveAspectRatio="xMidYMid meet" height="511" width="2000" xmlns="http://www.w3.org/2000/svg" xmlns:xlink="http://www.w3.org/1999/xlink"><g id="tight-bounds" transform="matrix(1,0,0,1,-0.06049999999996203,0.20249999999998636)"><svg viewBox="0 0 356.12052 90.59467452906435" height="90.59467452906435" width="356.12052"><g><svg viewBox="0 0 356.12052 90.59467452906435" height="90.59467452906435" width="356.12052"><g><svg viewBox="0 0 356.12052 90.59467452906435" height="90.59467452906435" width="356.12052"><g><path d="M0 90.595v-90.595h356.121v90.595z" fill="#000000" stroke="transparent" stroke-width="0" rx="0%" data-fill-palette-color="tertiary"></path><path d="M3.283 87.311v-84.028h349.554v84.028z" fill="#ffffff" stroke="transparent" stroke-width="0" rx="0%" data-fill-palette-color="quaternary"></path><path d="M9.85 80.745v-70.895h336.421v70.895z" fill="#000000" stroke="transparent" stroke-width="0" data-fill-palette-color="tertiary"></path></g><g transform="matrix(1,0,0,1,19.69974,19.69974)" id="textblocktransform"><svg viewBox="0 0 316.72104 51.195194529064345" height="51.195194529064345" width="316.72104" id="textblock"><g><svg viewBox="0 0 316.72104 51.195194529064345" height="51.195194529064345" width="316.72104"><g transform="matrix(1,0,0,1,0,0)"><svg width="316.72104" viewBox="1.25 -25.5 160.84 26" height="51.195194529064345" data-palette-color="#dedede"><path d="M3.3-9L3.3-9Q7.35-6.55 9.7-6.55L9.7-6.55Q11.2-6.55 11.2-7.6L11.2-7.6Q11.2-8.35 8.6-9.55L8.6-9.55Q2.35-12.1 2.35-17.9L2.35-17.9Q2.35-21.6 5.05-23.55 7.75-25.5 11.53-25.5 15.3-25.5 17.93-24.7 20.55-23.9 20.55-22.6L20.55-22.6Q20.55-21.5 19.48-19.7 18.4-17.9 18-17.75L18-17.75Q15.85-18.95 13.35-18.95L13.35-18.95Q12-18.95 12-18L12-18Q12-17.4 12.53-16.98 13.05-16.55 14.45-15.93 15.85-15.3 16.78-14.8 17.7-14.3 18.85-13.4L18.85-13.4Q21.25-11.5 21.25-8.45L21.25-8.45Q21.25-4.45 18.6-1.98 15.95 0.5 10.6 0.5L10.6 0.5Q7.05 0.5 4.15-0.7 1.25-1.9 1.25-4L1.25-4Q1.25-5.4 1.93-6.95 2.6-8.5 3.3-9ZM24.5-9.95L24.5-24.7Q24.5-25.25 28.8-25.25 33.1-25.25 33.1-24.7L33.1-24.7 33.1-10.1Q33.1-7.6 34.7-7.6L34.7-7.6Q35.9-7.6 37.4-8.65L37.4-8.65 37.4-24.7Q37.4-25.2 41.65-25.2 45.9-25.2 45.9-24.7L45.9-24.7 45.9-8.3 47.2-8.3Q48.9-8.3 48.9-5.05L48.9-5.05Q48.9-3.4 48.2-1.7L48.2-1.7Q47.2 0.5 45.5 0.5L45.5 0.5Q42.15 0.5 40.55-2.25L40.55-2.25 40.5-2.2Q37.45 0.5 33.95 0.5L33.95 0.5Q29.1 0.5 26.8-1.93 24.5-4.35 24.5-9.95L24.5-9.95ZM74.6-16.3L74.6-0.25Q74.6 0.1 70.32 0.1 66.05 0.1 66.05-0.35L66.05-0.35 66.05-14.9Q66.05-17.4 64.4-17.4L64.4-17.4Q63.55-17.4 62.15-16.3L62.15-16.3 62.15-0.3Q62.15 0.2 57.87 0.2 53.6 0.2 53.6-0.35L53.6-0.35 53.6-16.7 52.35-16.7Q50.7-16.7 50.7-20.15L50.7-20.15Q50.7-21.7 51.3-23.3L51.3-23.3Q52.1-25.5 53.9-25.5 55.7-25.5 57.37-24.55 59.05-23.6 59.4-22.75L59.4-22.75Q62.5-25.5 66.27-25.5 70.05-25.5 72.35-23.15L72.35-23.15Q75.05-25.5 78.85-25.5L78.85-25.5Q87.09-25.5 87.09-15.45L87.09-15.45 87.09-0.25Q87.09 0.1 82.82 0.1 78.55 0.1 78.55-0.35L78.55-0.35 78.55-14.9Q78.55-17.4 76.9-17.4L76.9-17.4Q76-17.4 74.6-16.3L74.6-16.3ZM92.39-9L92.39-9Q96.44-6.55 98.79-6.55L98.79-6.55Q100.29-6.55 100.29-7.6L100.29-7.6Q100.29-8.35 97.69-9.55L97.69-9.55Q91.44-12.1 91.44-17.9L91.44-17.9Q91.44-21.6 94.14-23.55 96.84-25.5 100.62-25.5 104.39-25.5 107.02-24.7 109.64-23.9 109.64-22.6L109.64-22.6Q109.64-21.5 108.57-19.7 107.49-17.9 107.09-17.75L107.09-17.75Q104.94-18.95 102.44-18.95L102.44-18.95Q101.09-18.95 101.09-18L101.09-18Q101.09-17.4 101.62-16.98 102.14-16.55 103.54-15.93 104.94-15.3 105.87-14.8 106.79-14.3 107.94-13.4L107.94-13.4Q110.34-11.5 110.34-8.45L110.34-8.45Q110.34-4.45 107.69-1.98 105.04 0.5 99.69 0.5L99.69 0.5Q96.14 0.5 93.24-0.7 90.34-1.9 90.34-4L90.34-4Q90.34-5.4 91.02-6.95 91.69-8.5 92.39-9ZM113.59-9.95L113.59-24.7Q113.59-25.25 117.89-25.25 122.19-25.25 122.19-24.7L122.19-24.7 122.19-10.1Q122.19-7.6 123.79-7.6L123.79-7.6Q124.99-7.6 126.49-8.65L126.49-8.65 126.49-24.7Q126.49-25.2 130.74-25.2 134.99-25.2 134.99-24.7L134.99-24.7 134.99-8.3 136.29-8.3Q137.99-8.3 137.99-5.05L137.99-5.05Q137.99-3.4 137.29-1.7L137.29-1.7Q136.29 0.5 134.59 0.5L134.59 0.5Q131.24 0.5 129.64-2.25L129.64-2.25 129.59-2.2Q126.54 0.5 123.04 0.5L123.04 0.5Q118.19 0.5 115.89-1.93 113.59-4.35 113.59-9.95L113.59-9.95ZM159.94-1.35L159.94-1.35Q156.79 0.5 151.84 0.5 146.89 0.5 143.49-2.88 140.09-6.25 140.09-12.23 140.09-18.2 143.36-21.85 146.64-25.5 151.64-25.5 156.64-25.5 159.36-22.95 162.09-20.4 162.09-16.75L162.09-16.75Q162.09-8.65 152.79-8.65L152.79-8.65 149.34-8.65Q149.34-7.15 150.16-6.58 150.99-6 152.59-6L152.59-6Q156.09-6 159.24-7.6L159.24-7.6Q159.29-7.65 159.69-6.9L159.69-6.9Q160.89-4.75 160.89-3.28 160.89-1.8 159.94-1.35ZM153.69-15.8L153.69-15.8Q153.69-17.9 151.64-17.9L151.64-17.9Q150.69-17.9 150.01-17.32 149.34-16.75 149.34-15.65L149.34-15.65 149.34-14.1 152.04-14.1Q153.69-14.1 153.69-15.8Z" opacity="1" transform="matrix(1,0,0,1,0,0)" fill="#ffffff" class="wordmark-text-0" data-fill-palette-color="quaternary" id="text-0"></path></svg></g></svg></g></svg></g></svg></g><g></g></svg></g><defs></defs></svg><rect width="356.12052" height="90.59467452906435" fill="none" stroke="none" visibility="hidden"></rect></g></svg></g></svg>