<svg class="img-fluid" id="outputsvg" xmlns="http://www.w3.org/2000/svg"
    style="transform: matrix(3.18135, 0, 0, 3.18135, 0, 0); transform-origin: 50% 50%; cursor: move; max-height: none; transition: transform 200ms ease-in-out 0s;"
    width="577" height="433" viewBox="0 0 5770 4330">
    <g id="lg1mpJsopwcABFRysdGluu" fill="rgb(0,162,232)" style="transform: none;">
        <g style="transform: none;">
            <path id="pwC6VZApt"
                d="M2648 2748 c3 -66 -1 -95 -17 -139 -27 -72 -84 -136 -152 -174 -51 -28 -61 -30 -162 -30 -107 0 -108 0 -85 -19 87 -72 219 -90 318 -44 139 64 211 209 175 350 -14 56 -58 138 -74 138 -3 0 -4 -37 -3 -82z"></path>
            <path id="pKJ1Aug3S"
                d="M2890 2797 c0 -7 4 -17 9 -22 17 -17 33 -148 25 -209 -23 -203 -164 -372 -349 -420 -74 -20 -217 -21 -278 -2 -26 8 -47 10 -47 5 0 -16 104 -92 165 -120 274 -128 595 49 647 358 10 61 9 83 -5 148 -18 84 -66 177 -121 238 -36 40 -46 45 -46 24z"></path>
            <path id="pyJlHWNuy"
                d="M3230 2777 c0 -2 10 -30 21 -63 29 -78 31 -305 5 -402 -64 -239 -239 -425 -481 -509 -74 -26 -91 -28 -230 -27 -126 1 -160 4 -210 22 -33 11 -61 19 -63 17 -9 -8 124 -160 177 -202 71 -56 197 -118 281 -137 103 -25 241 -21 346 9 125 37 205 85 299 179 137 139 202 283 212 471 9 164 -35 307 -139 447 -56 75 -218 220 -218 195z"></path>
        </g>
    </g>
</svg>